<svg width="33" height="34" viewBox="0 0 33 34" fill="none" xmlns="http://www.w3.org/2000/svg">
<path d="M30.1667 18.1C29.8995 17.7959 29.7521 17.4049 29.7521 17C29.7521 16.5952 29.8995 16.2042 30.1667 15.9L32.3 13.5C32.5351 13.2378 32.681 12.9079 32.717 12.5575C32.7529 12.2072 32.6769 11.8545 32.5 11.55L29.1667 5.78335C28.9915 5.47922 28.7248 5.23815 28.4046 5.09449C28.0843 4.95084 27.7269 4.91195 27.3833 4.98335L24.25 5.61668C23.8513 5.69907 23.4362 5.63267 23.0831 5.43002C22.73 5.22737 22.4633 4.90249 22.3333 4.51669L21.3167 1.46669C21.2048 1.13565 20.9918 0.848127 20.7077 0.644755C20.4236 0.441383 20.0827 0.33245 19.7333 0.333352H13.0667C12.7032 0.314382 12.3435 0.414896 12.0426 0.619542C11.7416 0.824188 11.516 1.12172 11.4 1.46669L10.4667 4.51669C10.3367 4.90249 10.0699 5.22737 9.71684 5.43002C9.36375 5.63267 8.94868 5.69907 8.54999 5.61668L5.33332 4.98335C5.00757 4.93732 4.67549 4.98872 4.3789 5.13108C4.08231 5.27345 3.83449 5.5004 3.66666 5.78335L0.333323 11.55C0.151923 11.8511 0.0703601 12.2018 0.100294 12.5521C0.130228 12.9023 0.270127 13.2341 0.49999 13.5L2.61666 15.9C2.88385 16.2042 3.03121 16.5952 3.03121 17C3.03121 17.4049 2.88385 17.7959 2.61666 18.1L0.49999 20.5C0.270127 20.7659 0.130228 21.0977 0.100294 21.448C0.0703601 21.7982 0.151923 22.1489 0.333323 22.45L3.66666 28.2167C3.84182 28.5208 4.10852 28.7619 4.42874 28.9055C4.74897 29.0492 5.10636 29.0881 5.44999 29.0167L8.58332 28.3833C8.98202 28.301 9.39708 28.3674 9.75018 28.57C10.1033 28.7727 10.37 29.0975 10.5 29.4833L11.5167 32.5333C11.6326 32.8783 11.8583 33.1758 12.1593 33.3805C12.4602 33.5851 12.8199 33.6857 13.1833 33.6667H19.85C20.1994 33.6676 20.5402 33.5587 20.8244 33.3553C21.1085 33.1519 21.3215 32.8644 21.4333 32.5333L22.45 29.4833C22.58 29.0975 22.8467 28.7727 23.1998 28.57C23.5529 28.3674 23.968 28.301 24.3667 28.3833L27.5 29.0167C27.8436 29.0881 28.201 29.0492 28.5212 28.9055C28.8415 28.7619 29.1082 28.5208 29.2833 28.2167L32.6167 22.45C32.7936 22.1455 32.8696 21.7928 32.8336 21.4425C32.7977 21.0922 32.6517 20.7622 32.4167 20.5L30.1667 18.1ZM27.6833 20.3333L29.0167 21.8333L26.8833 25.5334L24.9167 25.1333C23.7163 24.888 22.4676 25.0919 21.4076 25.7064C20.3477 26.3208 19.5502 27.3031 19.1667 28.4667L18.5333 30.3333H14.2667L13.6667 28.4334C13.2831 27.2698 12.4856 26.2875 11.4257 25.673C10.3657 25.0585 9.11702 24.8546 7.91666 25.1L5.94999 25.5L3.78332 21.8167L5.11666 20.3167C5.93658 19.4 6.38988 18.2132 6.38988 16.9833C6.38988 15.7535 5.93658 14.5667 5.11666 13.65L3.78332 12.15L5.91666 8.48335L7.88332 8.88335C9.08369 9.12872 10.3324 8.92482 11.3923 8.31035C12.4523 7.69588 13.2497 6.71362 13.6333 5.55002L14.2667 3.66668H18.5333L19.1667 5.56668C19.5502 6.73028 20.3477 7.71255 21.4076 8.32701C22.4676 8.94148 23.7163 9.14539 24.9167 8.90002L26.8833 8.50002L29.0167 12.2L27.6833 13.7C26.8726 14.6146 26.4249 15.7945 26.4249 17.0167C26.4249 18.2389 26.8726 19.4188 27.6833 20.3333ZM16.4 10.3334C15.0814 10.3334 13.7925 10.7243 12.6962 11.4569C11.5999 12.1894 10.7454 13.2306 10.2408 14.4488C9.73621 15.667 9.60419 17.0074 9.86142 18.3006C10.1187 19.5938 10.7536 20.7817 11.6859 21.7141C12.6183 22.6464 13.8062 23.2814 15.0994 23.5386C16.3926 23.7958 17.733 23.6638 18.9512 23.1592C20.1694 22.6546 21.2106 21.8001 21.9431 20.7038C22.6757 19.6075 23.0667 18.3186 23.0667 17C23.0667 15.2319 22.3643 13.5362 21.114 12.286C19.8638 11.0357 18.1681 10.3334 16.4 10.3334ZM16.4 20.3333C15.7407 20.3333 15.0963 20.1379 14.5481 19.7716C13.9999 19.4053 13.5727 18.8847 13.3204 18.2756C13.0681 17.6665 13.0021 16.9963 13.1307 16.3497C13.2593 15.7031 13.5768 15.1092 14.043 14.643C14.5091 14.1768 15.1031 13.8593 15.7497 13.7307C16.3963 13.6021 17.0665 13.6681 17.6756 13.9204C18.2847 14.1727 18.8053 14.6 19.1716 15.1481C19.5378 15.6963 19.7333 16.3407 19.7333 17C19.7333 17.8841 19.3821 18.7319 18.757 19.357C18.1319 19.9822 17.284 20.3333 16.4 20.3333Z" fill="current"/>
</svg>
