<svg width="34" height="32" viewBox="0 0 34 32" fill="none" xmlns="http://www.w3.org/2000/svg">
<path d="M27 0C28.7681 0 30.4638 0.702379 31.714 1.95262C32.9643 3.20286 33.6666 4.89856 33.6666 6.66667V20C33.6666 21.7681 32.9643 23.4638 31.714 24.714C30.4638 25.9643 28.7681 26.6667 27 26.6667H19.1266L11.19 31.4283C10.951 31.5718 10.6798 31.653 10.4013 31.6645C10.1228 31.676 9.84579 31.6175 9.59574 31.4943C9.34569 31.3711 9.13054 31.1872 8.96997 30.9593C8.8094 30.7314 8.70855 30.4669 8.67665 30.19L8.66665 30V26.6667H6.99998C5.28958 26.6667 3.6446 26.0093 2.40529 24.8305C1.16599 23.6516 0.427167 22.0416 0.341647 20.3333L0.333313 20V6.66667C0.333313 4.89856 1.03569 3.20286 2.28593 1.95262C3.53618 0.702379 5.23187 0 6.99998 0H27ZM20.3333 15H10.3333C9.89129 15 9.46736 15.1756 9.1548 15.4882C8.84224 15.8007 8.66665 16.2246 8.66665 16.6667C8.66665 17.1087 8.84224 17.5326 9.1548 17.8452C9.46736 18.1577 9.89129 18.3333 10.3333 18.3333H20.3333C20.7753 18.3333 21.1993 18.1577 21.5118 17.8452C21.8244 17.5326 22 17.1087 22 16.6667C22 16.2246 21.8244 15.8007 21.5118 15.4882C21.1993 15.1756 20.7753 15 20.3333 15ZM23.6666 8.33333H10.3333C9.89129 8.33333 9.46736 8.50893 9.1548 8.82149C8.84224 9.13405 8.66665 9.55797 8.66665 10C8.66665 10.442 8.84224 10.866 9.1548 11.1785C9.46736 11.4911 9.89129 11.6667 10.3333 11.6667H23.6666C24.1087 11.6667 24.5326 11.4911 24.8452 11.1785C25.1577 10.866 25.3333 10.442 25.3333 10C25.3333 9.55797 25.1577 9.13405 24.8452 8.82149C24.5326 8.50893 24.1087 8.33333 23.6666 8.33333Z" fill="current"/>
</svg>
