<svg width="36" height="34" viewBox="0 0 36 34" fill="none" xmlns="http://www.w3.org/2000/svg">
<path d="M3.61456 0.333344C2.74432 0.333344 1.90972 0.679046 1.29437 1.2944C0.679015 1.90975 0.333313 2.74435 0.333313 3.61459L0.333313 7.98959C0.333313 8.85983 0.679015 9.69443 1.29437 10.3098C1.90972 10.9251 2.74432 11.2708 3.61456 11.2708H32.0521C32.9223 11.2708 33.7569 10.9251 34.3723 10.3098C34.9876 9.69443 35.3333 8.85983 35.3333 7.98959V3.61459C35.3333 2.74435 34.9876 1.90975 34.3723 1.2944C33.7569 0.679046 32.9223 0.333344 32.0521 0.333344L3.61456 0.333344ZM5.80206 4.70834H12.3646C12.6546 4.70834 12.9328 4.82358 13.138 5.0287C13.3431 5.23381 13.4583 5.51201 13.4583 5.80209C13.4583 6.09217 13.3431 6.37037 13.138 6.57549C12.9328 6.78061 12.6546 6.89584 12.3646 6.89584H5.80206C5.51198 6.89584 5.23378 6.78061 5.02867 6.57549C4.82355 6.37037 4.70831 6.09217 4.70831 5.80209C4.70831 5.51201 4.82355 5.23381 5.02867 5.0287C5.23378 4.82358 5.51198 4.70834 5.80206 4.70834ZM27.5174 5.64241C27.4407 5.56592 27.3885 5.46839 27.3673 5.36218C27.3461 5.25596 27.3569 5.14585 27.3984 5.04581C27.4399 4.94576 27.5101 4.86027 27.6002 4.8002C27.6903 4.74012 27.7963 4.70815 27.9046 4.70834H29.6371C29.7454 4.70815 29.8513 4.74012 29.9414 4.8002C30.0315 4.86027 30.1018 4.94576 30.1432 5.04581C30.1847 5.14585 30.1955 5.25596 30.1744 5.36218C30.1532 5.46839 30.1009 5.56592 30.0243 5.64241L29.158 6.50866C29.1072 6.55958 29.0469 6.59999 28.9804 6.62756C28.914 6.65513 28.8427 6.66932 28.7708 6.66932C28.6989 6.66932 28.6277 6.65513 28.5612 6.62756C28.4948 6.59999 28.4344 6.55958 28.3836 6.50866L27.5174 5.64241ZM0.333313 17.8333C0.333313 16.673 0.794249 15.5602 1.61472 14.7398C2.43519 13.9193 3.54799 13.4583 4.70831 13.4583H30.9583C32.1186 13.4583 33.2314 13.9193 34.0519 14.7398C34.8724 15.5602 35.3333 16.673 35.3333 17.8333V28.7708C35.3333 29.9312 34.8724 31.044 34.0519 31.8644C33.2314 32.6849 32.1186 33.1458 30.9583 33.1458H4.70831C3.54799 33.1458 2.43519 32.6849 1.61472 31.8644C0.794249 31.044 0.333313 29.9312 0.333313 28.7708V17.8333ZM2.52081 24.3958V28.7708C2.52081 29.351 2.75128 29.9074 3.16152 30.3176C3.57175 30.7279 4.12815 30.9583 4.70831 30.9583H30.9583C31.5385 30.9583 32.0949 30.7279 32.5051 30.3176C32.9153 29.9074 33.1458 29.351 33.1458 28.7708V24.3958H2.52081ZM33.1458 22.2083V17.8333C33.1458 17.2532 32.9153 16.6968 32.5051 16.2865C32.0949 15.8763 31.5385 15.6458 30.9583 15.6458H4.70831C4.12815 15.6458 3.57175 15.8763 3.16152 16.2865C2.75128 16.6968 2.52081 17.2532 2.52081 17.8333V22.2083H33.1458ZM4.70831 18.9271C4.70831 18.637 4.82355 18.3588 5.02867 18.1537C5.23378 17.9486 5.51198 17.8333 5.80206 17.8333H25.4896C25.7796 17.8333 26.0578 17.9486 26.263 18.1537C26.4681 18.3588 26.5833 18.637 26.5833 18.9271C26.5833 19.2172 26.4681 19.4954 26.263 19.7005C26.0578 19.9056 25.7796 20.0208 25.4896 20.0208H5.80206C5.51198 20.0208 5.23378 19.9056 5.02867 19.7005C4.82355 19.4954 4.70831 19.2172 4.70831 18.9271ZM4.70831 27.6771C4.70831 27.387 4.82355 27.1088 5.02867 26.9037C5.23378 26.6986 5.51198 26.5833 5.80206 26.5833H18.9271C19.2171 26.5833 19.4953 26.6986 19.7005 26.9037C19.9056 27.1088 20.0208 27.387 20.0208 27.6771C20.0208 27.9672 19.9056 28.2454 19.7005 28.4505C19.4953 28.6556 19.2171 28.7708 18.9271 28.7708H5.80206C5.51198 28.7708 5.23378 28.6556 5.02867 28.4505C4.82355 28.2454 4.70831 27.9672 4.70831 27.6771Z" fill="current"/>
</svg>
