<svg width="30" height="30" viewBox="0 0 30 30" fill="none" xmlns="http://www.w3.org/2000/svg">
<path d="M20 30L10 26.5L2.25 29.5C1.69444 29.7222 1.18056 29.66 0.708333 29.3133C0.236111 28.9667 0 28.5011 0 27.9167V4.58333C0 4.22222 0.104444 3.90278 0.313333 3.625C0.522222 3.34722 0.806667 3.13889 1.16667 3L10 0L20 3.5L27.75 0.5C28.3056 0.277778 28.8194 0.340556 29.2917 0.688333C29.7639 1.03611 30 1.50111 30 2.08333V25.4167C30 25.7778 29.8961 26.0972 29.6883 26.375C29.4806 26.6528 29.1956 26.8611 28.8333 27L20 30ZM18.3333 25.9167V6.41667L11.6667 4.08333V23.5833L18.3333 25.9167Z" 
fill="current"/>
</svg>
