<svg width="44" height="44" viewBox="0 0 44 44" fill="none" xmlns="http://www.w3.org/2000/svg">
<path fill-rule="evenodd" clip-rule="evenodd" d="M12.3333 9.91667C12.3333 7.35291 13.3518 4.89415 15.1646 3.0813C16.9775 1.26845 19.4362 0.25 22 0.25C24.5638 0.25 27.0225 1.26845 28.8354 3.0813C30.6482 4.89415 31.6667 7.35291 31.6667 9.91667C31.6667 12.4804 30.6482 14.9392 28.8354 16.752C27.0225 18.5649 24.5638 19.5833 22 19.5833C19.4362 19.5833 16.9775 18.5649 15.1646 16.752C13.3518 14.9392 12.3333 12.4804 12.3333 9.91667ZM12.3333 24.4167C9.12863 24.4167 6.05519 25.6897 3.78913 27.9558C1.52306 30.2219 0.25 33.2953 0.25 36.5C0.25 38.4228 1.01384 40.2669 2.37348 41.6265C3.73311 42.9862 5.57718 43.75 7.5 43.75H36.5C38.4228 43.75 40.2669 42.9862 41.6265 41.6265C42.9862 40.2669 43.75 38.4228 43.75 36.5C43.75 33.2953 42.4769 30.2219 40.2109 27.9558C37.9448 25.6897 34.8714 24.4167 31.6667 24.4167H12.3333Z" fill="#C491AB"/>
</svg>
